<svg width="13" height="18" viewBox="0 0 13 18" fill="none" xmlns="http://www.w3.org/2000/svg">
<path d="M6.5 0C2.91146 0 0 2.96878 0 6.62797C0 9.64508 3.93047 15.0165 5.69766 17.2327C6.11406 17.7609 6.88594 17.7609 7.30234 17.2327C9.03906 15.0165 13 9.64508 13 6.62797C13 2.96878 10.0885 0 6.5 0ZM6.5 9.11346C4.68542 9.11346 3.21615 7.61526 3.21615 5.76496C3.21615 3.91465 4.68542 2.41645 6.5 2.41645C8.31458 2.41645 9.78385 3.91465 9.78385 5.76496C9.78385 7.61526 8.31458 9.11346 6.5 9.11346Z" fill="#A3A3A3"/>
</svg>
