<svg width="14" height="14" viewBox="0 0 14 14" fill="none" xmlns="http://www.w3.org/2000/svg">
<path d="M12.9774 2.01349L8.53348 7.61705C8.36627 7.84858 8.14619 8.03717 7.89142 8.16725C7.63665 8.29733 7.35449 8.36517 7.06822 8.36517C6.78195 8.36517 6.49979 8.29733 6.24502 8.16725C5.99025 8.03717 5.77017 7.84858 5.60296 7.61705L3.92407 5.50335C3.86959 5.44237 3.82818 5.37095 3.80237 5.29346C3.77657 5.21598 3.76691 5.13405 3.774 5.05272C3.78109 4.97138 3.80477 4.89234 3.8436 4.82045C3.88243 4.74856 3.93558 4.68532 3.99979 4.63462C4.06401 4.58391 4.13794 4.54681 4.21706 4.52559C4.29617 4.50436 4.3788 4.49946 4.45988 4.51118C4.54097 4.5229 4.6188 4.551 4.6886 4.59375C4.7584 4.6365 4.8187 4.69301 4.86581 4.75981L6.5447 6.85851C6.60175 6.94448 6.67928 7.01502 6.77037 7.06382C6.86147 7.11263 6.96329 7.13817 7.06671 7.13817C7.17014 7.13817 7.27196 7.11263 7.36305 7.06382C7.45415 7.01502 7.53169 6.94448 7.58874 6.85851L12.0206 1.28194C11.3135 0.922982 10.5043 0.816458 9.72786 0.980139C8.95146 1.14382 8.25485 1.56781 7.75422 2.18139C7.66682 2.29802 7.55332 2.39273 7.42274 2.45796C7.29216 2.5232 7.1481 2.55717 7.00203 2.55717C6.85595 2.55717 6.7119 2.5232 6.58132 2.45796C6.45074 2.39273 6.33723 2.29802 6.24984 2.18139C4.46565 -0.112198 0.124023 0.703301 0.124023 4.57991C0.124023 8.29463 4.10159 11.4757 6.00613 12.7859C6.29805 12.9866 6.64433 13.0941 6.99902 13.0941C7.3537 13.0941 7.69999 12.9866 7.99191 12.7859C9.89645 11.4757 13.874 8.28863 13.874 4.57991C13.9076 3.64283 13.5877 2.72721 12.9774 2.01349Z" fill="#D61A1B"/>
</svg>
