<svg width="12" height="16" viewBox="0 0 12 16" fill="none" xmlns="http://www.w3.org/2000/svg">
<path d="M11.8817 4.80406C11.8731 4.63894 11.8238 4.47851 11.7381 4.33713C11.6523 4.19575 11.5329 4.07782 11.3904 3.99388L6.50363 1.13124C6.3508 1.04147 6.17676 0.994141 5.99952 0.994141C5.82227 0.994141 5.64824 1.04147 5.49541 1.13124L0.608595 3.99388C0.465679 4.07729 0.345876 4.19509 0.260081 4.33659C0.174286 4.47808 0.125219 4.63878 0.11734 4.80406C0.0221762 6.67905 0.148204 12.8596 5.65487 14.9455C5.87243 15.0251 6.11117 15.0251 6.32873 14.9455C11.8508 12.8544 11.9769 6.68163 11.8817 4.80406ZM8.59725 9.52884C8.59725 9.63116 8.5566 9.72929 8.48425 9.80164C8.41189 9.87399 8.31376 9.91464 8.21144 9.91464H7.06176C6.95988 9.91396 6.86241 9.87301 6.79062 9.80073C6.71882 9.72845 6.67852 9.63072 6.67853 9.52884V8.45117C6.67853 8.34885 6.63788 8.25071 6.56553 8.17836C6.49318 8.10601 6.39505 8.06537 6.29273 8.06537H5.71917C5.61729 8.06605 5.51982 8.10699 5.44803 8.17927C5.37623 8.25155 5.33594 8.34929 5.33594 8.45117V9.52884C5.33594 9.63116 5.29529 9.72929 5.22294 9.80164C5.15059 9.87399 5.05246 9.91464 4.95014 9.91464H3.80045C3.69858 9.91396 3.60111 9.87301 3.52931 9.80073C3.45751 9.72845 3.41722 9.63072 3.41722 9.52884V6.88996C3.41703 6.82376 3.43399 6.75865 3.46644 6.70095C3.49889 6.64326 3.54574 6.59495 3.60241 6.56074L5.80919 5.23873C5.86876 5.2021 5.93731 5.18271 6.00723 5.18271C6.07716 5.18271 6.14571 5.2021 6.20528 5.23873L8.40949 6.56074C8.46647 6.59482 8.51369 6.64303 8.54658 6.70071C8.57947 6.75838 8.59692 6.82357 8.59725 6.88996V9.52884Z" fill="#D61A1B"/>
</svg>
