<svg width="15" height="13" viewBox="0 0 15 13" fill="none" xmlns="http://www.w3.org/2000/svg">
<path d="M5.07246 3.72588L1.33027 4.25142C1.02038 4.29356 0.759961 4.5018 0.661003 4.78688C0.562044 5.07444 0.642773 5.38679 0.866731 5.59998L3.58027 8.13348L2.93965 11.7676C2.88756 12.0651 3.01517 12.3676 3.27558 12.5436C3.5334 12.7196 3.87454 12.7419 4.15319 12.6006L7.49694 10.9025L10.8381 12.6006C11.1193 12.7419 11.4605 12.7196 11.7183 12.5436C11.9761 12.3676 12.1063 12.0651 12.0516 11.7676L11.411 8.13348L14.1251 5.59998C14.3493 5.38679 14.429 5.07444 14.3305 4.78688C14.2324 4.5018 13.9727 4.29356 13.6605 4.25142L9.92142 3.72588L8.24434 0.445463C8.10631 0.17238 7.81465 -0.000976562 7.49694 -0.000976562C7.17663 -0.000976562 6.88496 0.17238 6.74694 0.445463L5.07246 3.72588Z" fill="#EC3E3F"/>
</svg>
